<mxfile host="65bd71144e">
    <diagram id="RFLu-tFbSnbCSp4dshHc" name="Flowchart_Kasir">
        <mxGraphModel dx="422" dy="214" grid="1" gridSize="10" guides="1" tooltips="1" connect="1" arrows="1" fold="1" page="1" pageScale="1" pageWidth="827" pageHeight="1169" math="0" shadow="0">
            <root>
                <mxCell id="0"/>
                <mxCell id="1" parent="0"/>
                <mxCell id="2" value="" style="whiteSpace=wrap;html=1;" vertex="1" parent="1">
                    <mxGeometry x="20" width="440" height="1040" as="geometry"/>
                </mxCell>
                <mxCell id="3" value="mulai" style="shape=mxgraph.flowchart.terminator;strokeWidth=2;gradientColor=none;gradientDirection=north;fontStyle=0;html=1;" vertex="1" parent="1">
                    <mxGeometry x="259.5" y="70" width="120" height="30" as="geometry"/>
                </mxCell>
                <mxCell id="4" value="input kode barang&lt;br&gt;dan banyaknya&lt;br&gt;barang" style="shape=mxgraph.flowchart.data;strokeWidth=2;gradientColor=none;gradientDirection=north;fontStyle=0;html=1;" vertex="1" parent="1">
                    <mxGeometry x="240.5" y="121" width="159" height="80" as="geometry"/>
                </mxCell>
                <mxCell id="5" value="output&lt;br&gt;total pembayaran" style="shape=mxgraph.flowchart.data;strokeWidth=2;gradientColor=none;gradientDirection=north;fontStyle=0;html=1;" vertex="1" parent="1">
                    <mxGeometry x="240.5" y="415" width="159" height="80" as="geometry"/>
                </mxCell>
                <mxCell id="6" style="fontStyle=1;strokeColor=#003366;strokeWidth=1;html=1;" edge="1" parent="1" source="3" target="4">
                    <mxGeometry relative="1" as="geometry"/>
                </mxCell>
                <mxCell id="7" style="fontStyle=1;strokeColor=#003366;strokeWidth=1;html=1;entryX=0.5;entryY=0;entryDx=0;entryDy=0;" edge="1" parent="1" source="4" target="17">
                    <mxGeometry relative="1" as="geometry">
                        <mxPoint x="320" y="250" as="targetPoint"/>
                    </mxGeometry>
                </mxCell>
                <mxCell id="8" style="entryX=0.5;entryY=0;entryPerimeter=0;fontStyle=1;strokeColor=#003366;strokeWidth=1;html=1;exitX=0.5;exitY=1;exitDx=0;exitDy=0;" edge="1" parent="1" source="17" target="30">
                    <mxGeometry relative="1" as="geometry">
                        <mxPoint x="320" y="330" as="sourcePoint"/>
                    </mxGeometry>
                </mxCell>
                <mxCell id="9" value="" style="edgeStyle=elbowEdgeStyle;elbow=horizontal;fontColor=#001933;fontStyle=1;strokeColor=#003366;strokeWidth=1;html=1;" edge="1" parent="1" source="30" target="5">
                    <mxGeometry width="100" height="100" as="geometry">
                        <mxPoint y="100" as="sourcePoint"/>
                        <mxPoint x="100" as="targetPoint"/>
                    </mxGeometry>
                </mxCell>
                <mxCell id="10" value="input nominal uang" style="shape=mxgraph.flowchart.data;strokeWidth=2;gradientColor=none;gradientDirection=north;fontStyle=0;html=1;" vertex="1" parent="1">
                    <mxGeometry x="240.5" y="517" width="159" height="80" as="geometry"/>
                </mxCell>
                <mxCell id="11" value="" style="edgeStyle=elbowEdgeStyle;elbow=horizontal;fontStyle=1;strokeColor=#003366;strokeWidth=1;html=1;" edge="1" parent="1" source="5" target="10">
                    <mxGeometry width="100" height="100" as="geometry">
                        <mxPoint y="100" as="sourcePoint"/>
                        <mxPoint x="100" as="targetPoint"/>
                    </mxGeometry>
                </mxCell>
                <mxCell id="12" value="" style="edgeStyle=elbowEdgeStyle;elbow=horizontal;entryX=0.5;entryY=0;entryPerimeter=0;fontStyle=1;strokeColor=#003366;strokeWidth=1;html=1;entryDx=0;entryDy=0;" edge="1" parent="1" source="10" target="34">
                    <mxGeometry width="100" height="100" as="geometry">
                        <mxPoint y="100" as="sourcePoint"/>
                        <mxPoint x="320.9999999999998" y="795.6000000000001" as="targetPoint"/>
                    </mxGeometry>
                </mxCell>
                <mxCell id="13" value="setruk pembayan" style="shape=mxgraph.flowchart.document;strokeWidth=2;gradientColor=none;gradientDirection=north;fontStyle=0;html=1;" vertex="1" parent="1">
                    <mxGeometry x="240.5" y="896" width="159" height="70" as="geometry"/>
                </mxCell>
                <mxCell id="14" value="" style="edgeStyle=elbowEdgeStyle;elbow=horizontal;exitX=0.5;exitY=1;exitPerimeter=0;fontStyle=1;strokeColor=#003366;strokeWidth=1;html=1;entryX=0.5;entryY=0;entryDx=0;entryDy=0;entryPerimeter=0;" edge="1" parent="1" source="34" target="38">
                    <mxGeometry x="-1.5" y="-310" width="100" height="100" as="geometry">
                        <mxPoint x="-1.5" y="-210" as="sourcePoint"/>
                        <mxPoint x="320" y="880" as="targetPoint"/>
                    </mxGeometry>
                </mxCell>
                <mxCell id="15" value="selesai" style="shape=mxgraph.flowchart.terminator;strokeWidth=2;gradientColor=none;gradientDirection=north;fontStyle=0;html=1;" vertex="1" parent="1">
                    <mxGeometry x="260" y="982" width="120" height="30" as="geometry"/>
                </mxCell>
                <mxCell id="16" value="" style="edgeStyle=elbowEdgeStyle;elbow=horizontal;exitX=0;exitY=0.5;exitPerimeter=0;entryX=0.095;entryY=0.5;fontStyle=1;strokeColor=#003366;strokeWidth=1;html=1;entryDx=0;entryDy=0;entryPerimeter=0;exitDx=0;exitDy=0;" edge="1" parent="1" source="30" target="4">
                    <mxGeometry width="100" height="100" as="geometry">
                        <mxPoint y="100" as="sourcePoint"/>
                        <mxPoint x="255.60500000000002" y="290" as="targetPoint"/>
                        <Array as="points">
                            <mxPoint x="170" y="290"/>
                            <mxPoint x="160" y="300"/>
                            <mxPoint x="120" y="970"/>
                        </Array>
                    </mxGeometry>
                </mxCell>
                <mxCell id="17" value="menjumlahkan harga" style="rounded=1;whiteSpace=wrap;html=1;absoluteArcSize=1;arcSize=14;strokeWidth=2;" vertex="1" parent="1">
                    <mxGeometry x="251" y="223" width="138" height="70" as="geometry"/>
                </mxCell>
                <mxCell id="18" value="" style="edgeStyle=elbowEdgeStyle;elbow=horizontal;exitX=0;exitY=0.5;exitPerimeter=0;entryX=0.095;entryY=0.5;fontStyle=1;strokeColor=#003366;strokeWidth=1;html=1;entryDx=0;entryDy=0;entryPerimeter=0;exitDx=0;exitDy=0;" edge="1" parent="1" source="34" target="10">
                    <mxGeometry x="-46.6" y="340" width="100" height="100" as="geometry">
                        <mxPoint x="193.4" y="743.5" as="sourcePoint"/>
                        <mxPoint x="209.00500000000002" y="510" as="targetPoint"/>
                        <Array as="points">
                            <mxPoint x="170" y="740"/>
                            <mxPoint x="113.4" y="640"/>
                            <mxPoint x="73.4" y="1310"/>
                        </Array>
                    </mxGeometry>
                </mxCell>
                <mxCell id="19" value="menghitung kembalian" style="rounded=1;whiteSpace=wrap;html=1;absoluteArcSize=1;arcSize=14;strokeWidth=2;" vertex="1" parent="1">
                    <mxGeometry x="60" y="700" width="138" height="70" as="geometry"/>
                </mxCell>
                <mxCell id="20" value="" style="edgeStyle=elbowEdgeStyle;elbow=horizontal;entryX=1;entryY=0.5;fontStyle=1;strokeColor=#003366;strokeWidth=1;html=1;entryDx=0;entryDy=0;exitX=0;exitY=0.5;exitDx=0;exitDy=0;exitPerimeter=0;" edge="1" parent="1" source="38" target="19">
                    <mxGeometry x="-90.93" y="126" width="100" height="100" as="geometry">
                        <mxPoint x="228.63521739130448" y="846" as="sourcePoint"/>
                        <mxPoint x="228.57" y="896" as="targetPoint"/>
                    </mxGeometry>
                </mxCell>
                <mxCell id="21" value="" style="edgeStyle=elbowEdgeStyle;elbow=horizontal;entryX=0.5;entryY=0;fontStyle=1;strokeColor=#003366;strokeWidth=1;html=1;entryDx=0;entryDy=0;exitX=0.5;exitY=1;exitDx=0;exitDy=0;exitPerimeter=0;entryPerimeter=0;" edge="1" parent="1" source="38" target="28">
                    <mxGeometry x="105.5" y="200" width="100" height="100" as="geometry">
                        <mxPoint x="425.0652173913045" y="920" as="sourcePoint"/>
                        <mxPoint x="320" y="850" as="targetPoint"/>
                    </mxGeometry>
                </mxCell>
                <mxCell id="22" value="" style="edgeStyle=elbowEdgeStyle;elbow=horizontal;fontStyle=1;strokeColor=#003366;strokeWidth=1;html=1;exitX=0.5;exitY=1;exitDx=0;exitDy=0;entryX=0.5;entryY=0;entryDx=0;entryDy=0;entryPerimeter=0;exitPerimeter=0;" edge="1" parent="1" source="28" target="13">
                    <mxGeometry x="105.07" y="350" width="100" height="100" as="geometry">
                        <mxPoint x="320" y="920" as="sourcePoint"/>
                        <mxPoint x="340" y="930" as="targetPoint"/>
                    </mxGeometry>
                </mxCell>
                <mxCell id="23" value="" style="edgeStyle=elbowEdgeStyle;elbow=horizontal;entryX=0.095;entryY=0.5;fontStyle=1;strokeColor=#003366;strokeWidth=1;html=1;entryDx=0;entryDy=0;exitX=0.5;exitY=1;exitDx=0;exitDy=0;entryPerimeter=0;" edge="1" parent="1" source="19" target="28">
                    <mxGeometry x="-94.93" y="250" width="100" height="100" as="geometry">
                        <mxPoint x="120" y="960" as="sourcePoint"/>
                        <mxPoint x="251" y="885" as="targetPoint"/>
                        <Array as="points">
                            <mxPoint x="129" y="840"/>
                            <mxPoint x="120" y="960"/>
                        </Array>
                    </mxGeometry>
                </mxCell>
                <mxCell id="24" value="" style="edgeStyle=elbowEdgeStyle;elbow=horizontal;entryX=0.5;entryY=0;fontStyle=1;strokeColor=#003366;strokeWidth=1;html=1;entryDx=0;entryDy=0;exitX=0.5;exitY=0.9;exitDx=0;exitDy=0;entryPerimeter=0;exitPerimeter=0;" edge="1" parent="1" source="13" target="15">
                    <mxGeometry x="104.71" y="491" width="100" height="100" as="geometry">
                        <mxPoint x="318.6399999999999" y="1191" as="sourcePoint"/>
                        <mxPoint x="318.6399999999999" y="1241" as="targetPoint"/>
                    </mxGeometry>
                </mxCell>
                <mxCell id="25" value="" style="group" vertex="1" connectable="0" parent="1">
                    <mxGeometry x="40" y="6" width="210" height="51" as="geometry"/>
                </mxCell>
                <mxCell id="26" value="&lt;font style=&quot;font-size: 15px;&quot;&gt;&lt;b&gt;Flowchart Sistem Kasir&lt;/b&gt;&lt;/font&gt;" style="text;html=1;align=center;verticalAlign=middle;resizable=0;points=[];autosize=1;strokeColor=none;fillColor=none;" vertex="1" parent="25">
                    <mxGeometry width="190" height="30" as="geometry"/>
                </mxCell>
                <mxCell id="27" value="&lt;font style=&quot;font-size: 14px;&quot;&gt;Akhsan Ibrahim - BE2777445&lt;/font&gt;" style="text;html=1;align=center;verticalAlign=middle;resizable=0;points=[];autosize=1;strokeColor=none;fillColor=none;" vertex="1" parent="25">
                    <mxGeometry y="21" width="210" height="30" as="geometry"/>
                </mxCell>
                <mxCell id="28" value="&lt;span style=&quot;&quot;&gt;output setruk&lt;br&gt;pembayaran&lt;/span&gt;" style="shape=mxgraph.flowchart.data;strokeWidth=2;gradientColor=none;gradientDirection=north;fontStyle=0;html=1;" vertex="1" parent="1">
                    <mxGeometry x="240" y="793" width="159" height="80" as="geometry"/>
                </mxCell>
                <mxCell id="29" value="" style="group" vertex="1" connectable="0" parent="1">
                    <mxGeometry x="211" y="314" width="179" height="91" as="geometry"/>
                </mxCell>
                <mxCell id="30" value="ada barang lain?" style="shape=mxgraph.flowchart.decision;strokeWidth=2;gradientColor=none;gradientDirection=north;fontStyle=0;html=1;" vertex="1" parent="29">
                    <mxGeometry x="39" width="140" height="73" as="geometry"/>
                </mxCell>
                <mxCell id="31" value="tidak" style="text;fontStyle=0;html=1;strokeColor=none;gradientColor=none;fillColor=none;strokeWidth=2;align=left;" vertex="1" parent="29">
                    <mxGeometry x="110" y="65" width="40" height="26" as="geometry"/>
                </mxCell>
                <mxCell id="32" value="ya" style="text;fontStyle=0;html=1;strokeColor=none;gradientColor=none;fillColor=none;strokeWidth=2;align=right;" vertex="1" parent="29">
                    <mxGeometry y="29" width="40" height="26" as="geometry"/>
                </mxCell>
                <mxCell id="33" value="" style="group" vertex="1" connectable="0" parent="1">
                    <mxGeometry x="218.25" y="618" width="172.25" height="77" as="geometry"/>
                </mxCell>
                <mxCell id="34" value="nominal &amp;lt; total?" style="shape=mxgraph.flowchart.decision;strokeWidth=2;gradientColor=none;gradientDirection=north;fontStyle=0;html=1;" vertex="1" parent="33">
                    <mxGeometry x="31.25" width="141" height="60" as="geometry"/>
                </mxCell>
                <mxCell id="35" value="ya" style="text;fontStyle=0;html=1;strokeColor=none;gradientColor=none;fillColor=none;strokeWidth=2;align=right;" vertex="1" parent="33">
                    <mxGeometry y="23" width="31.5" height="26" as="geometry"/>
                </mxCell>
                <mxCell id="36" value="tidak" style="text;fontStyle=0;html=1;strokeColor=none;gradientColor=none;fillColor=none;strokeWidth=2;align=left;" vertex="1" parent="33">
                    <mxGeometry x="103.25" y="53" width="31" height="26" as="geometry"/>
                </mxCell>
                <mxCell id="37" value="" style="group" vertex="1" connectable="0" parent="1">
                    <mxGeometry x="218.5" y="705" width="172" height="80" as="geometry"/>
                </mxCell>
                <mxCell id="38" value="nominal &amp;gt; total?" style="shape=mxgraph.flowchart.decision;strokeWidth=2;gradientColor=none;gradientDirection=north;fontStyle=0;html=1;" vertex="1" parent="37">
                    <mxGeometry x="31" width="141" height="60" as="geometry"/>
                </mxCell>
                <mxCell id="39" value="ya" style="text;fontStyle=0;html=1;strokeColor=none;gradientColor=none;fillColor=none;strokeWidth=2;align=right;" vertex="1" parent="37">
                    <mxGeometry y="23" width="31.5" height="26" as="geometry"/>
                </mxCell>
                <mxCell id="40" value="tidak" style="text;fontStyle=0;html=1;strokeColor=none;gradientColor=none;fillColor=none;strokeWidth=2;align=left;" vertex="1" parent="37">
                    <mxGeometry x="103.5" y="54" width="31" height="26" as="geometry"/>
                </mxCell>
            </root>
        </mxGraphModel>
    </diagram>
</mxfile>